<?xml version="1.0" standalone="no"?>
<!DOCTYPE svg PUBLIC "-//W3C//DTD SVG 20010904//EN"
 "http://www.w3.org/TR/2001/REC-SVG-20010904/DTD/svg10.dtd">
<svg version="1.0" xmlns="http://www.w3.org/2000/svg"
 width="273.000000pt" height="273.000000pt" viewBox="0 0 273.000000 273.000000"
 preserveAspectRatio="xMidYMid meet">
<metadata>
Created by potrace 1.14, written by Peter Selinger 2001-2017
</metadata>
<g transform="translate(0.000000,273.000000) scale(0.100000,-0.100000)"
fill="#000000" stroke="none">
<path d="M1340 2075 l0 -655 -71 0 c-67 0 -73 -2 -105 -34 -31 -31 -34 -39
-34 -92 1 -66 15 -100 51 -120 21 -12 8 -13 -104 -14 l-129 0 -34 -34 c-31
-31 -34 -39 -34 -92 1 -66 15 -100 51 -120 21 -12 8 -13 -104 -14 l-129 0 -34
-34 c-31 -31 -34 -39 -34 -92 1 -66 15 -100 51 -120 21 -12 8 -13 -104 -14
l-129 0 -34 -34 c-31 -31 -34 -39 -34 -92 1 -66 15 -100 51 -120 21 -12 8 -13
-104 -14 l-129 0 -34 -34 c-31 -31 -34 -39 -34 -92 1 -66 15 -100 51 -120 21
-12 12 -13 -78 -14 l-103 0 0 -60 0 -60 1365 0 1365 0 0 60 0 60 -87 0 c-79 1
-85 2 -64 14 36 20 50 54 51 120 0 53 -3 61 -34 92 l-34 34 -129 0 c-112 1
-125 2 -104 14 36 20 50 54 51 120 0 53 -3 61 -34 92 l-34 34 -129 0 c-112 1
-125 2 -104 14 36 20 50 54 51 120 0 53 -3 61 -34 92 l-34 34 -129 0 c-112 1
-125 2 -104 14 36 20 50 54 51 120 0 53 -3 61 -34 92 l-34 34 -129 0 c-112 1
-125 2 -104 14 36 20 50 54 51 120 0 53 -3 61 -34 92 -32 32 -38 34 -105 34
l-71 0 0 655 0 655 -40 0 -40 0 0 -655z"/>
</g>
</svg>
